<svg width="657.9px" height="120.8px" xmlns="http://www.w3.org/2000/svg" viewBox="-78.9375 14.600000000000001 657.875 120.8" style="background: rgba(0, 0, 0, 0)" preserveAspectRatio="xMidYMid"><defs><linearGradient id="editing-gradient-gradient" x1="0.7113091308703496" x2="0.28869086912965036" y1="0.046846106481674976" y2="0.953153893518325" gradientUnits="objectBoundingBox"><stop offset="0" stop-color="rgba(0%, 79%, 100%, 0.66)"></stop><stop offset="1" stop-color="#132183"></stop></linearGradient></defs><g><g transform="matrix(1.4,0,0,1.9,-71.3,241.5)"><path d="M 15.8 -73.2 L 1.8 -73.2 L 9.9 -115.4 L 24 -115.4 L 15.8 -73.2 Z M 71.5 -71.9 L 71.5 -71.9 L 71.5 -71.9 Q 63.8 -71.9 63.8 -77.9 L 63.8 -77.9 L 63.8 -77.9 Q 63.8 -80.5 64.9 -85.6 L 64.9 -85.6 L 64.9 -85.6 Q 66 -90.7 66.4 -92.7 L 66.4 -92.7 L 66.4 -92.7 Q 67.3 -97.4 67.3 -98.9 L 67.3 -98.9 L 67.3 -98.9 Q 67.3 -102.1 64.9 -102.1 L 64.9 -102.1 L 64.9 -102.1 Q 63.3 -102.1 61.7 -99.9 L 61.7 -99.9 L 61.7 -99.9 Q 60.2 -97.7 59.5 -93.3 L 59.5 -93.3 L 55.5 -73.2 L 43 -71.9 L 46.5 -89.3 L 46.5 -89.3 Q 47.1 -92.2 47.6 -95.4 L 47.6 -95.4 L 47.6 -95.4 Q 48.1 -98.7 48.1 -99.2 L 48.1 -99.2 L 48.1 -99.2 Q 48.1 -102.1 45.9 -102.1 L 45.9 -102.1 L 45.9 -102.1 Q 44.4 -102.1 42.8 -100 L 42.8 -100 L 42.8 -100 Q 41.2 -97.8 40.3 -93.3 L 40.3 -93.3 L 36.4 -73.2 L 23.8 -71.9 L 30.6 -105.8 L 41 -107.1 L 39.9 -100.6 L 39.9 -100.6 Q 41.6 -104.1 44.6 -105.6 L 44.6 -105.6 L 44.6 -105.6 Q 47.7 -107.1 52.5 -107.1 L 52.5 -107.1 L 52.5 -107.1 Q 55.3 -107.1 57.1 -105.7 L 57.1 -105.7 L 57.1 -105.7 Q 58.8 -104.4 59.4 -102.2 L 59.4 -102.2 L 59.4 -102.2 Q 60.5 -104.5 63.3 -105.8 L 63.3 -105.8 L 63.3 -105.8 Q 66.1 -107.1 69.5 -107.1 L 69.5 -107.1 L 69.5 -107.1 Q 72.9 -107.1 74.6 -106.3 L 74.6 -106.3 L 74.6 -106.3 Q 76.3 -105.6 77.3 -104.4 L 77.3 -104.4 L 77.3 -104.4 Q 79.1 -102.1 79.1 -98.1 L 79.1 -98.1 L 79.1 -98.1 Q 79.1 -94 77.3 -85.6 L 77.3 -85.6 L 77.3 -85.6 Q 76.4 -81.5 76.4 -80 L 76.4 -80 L 76.4 -80 Q 76.4 -78.5 77.3 -77.6 L 77.3 -77.6 L 77.3 -77.6 Q 78.2 -76.7 79.5 -76.6 L 79.5 -76.6 L 79.5 -76.6 Q 78.8 -74.4 76.6 -73.2 L 76.6 -73.2 L 76.6 -73.2 Q 74.4 -71.9 71.5 -71.9 Z M 87.2 -75.1 L 87.2 -75.1 L 87.2 -75.1 Q 85.7 -76.7 85 -79.4 L 85 -79.4 L 85 -79.4 Q 84.3 -82 84.3 -86.3 L 84.3 -86.3 L 84.3 -86.3 Q 84.3 -90.6 85.8 -94.5 L 85.8 -94.5 L 85.8 -94.5 Q 87.3 -98.4 89.9 -101.2 L 89.9 -101.2 L 89.9 -101.2 Q 95.5 -107.1 104.5 -107.1 L 104.5 -107.1 L 104.5 -107.1 Q 107.8 -107.1 110.2 -106 L 110.2 -106 L 121.1 -107.1 L 116.4 -82.1 L 116.4 -82.1 Q 116.2 -81.3 116.2 -79.9 L 116.2 -79.9 L 116.2 -79.9 Q 116.2 -78.5 117.1 -77.6 L 117.1 -77.6 L 117.1 -77.6 Q 117.9 -76.7 119.2 -76.6 L 119.2 -76.6 L 119.2 -76.6 Q 118.6 -74.4 116.2 -73.2 L 116.2 -73.2 L 116.2 -73.2 Q 113.9 -71.9 111.3 -71.9 L 111.3 -71.9 L 111.3 -71.9 Q 108.6 -71.9 106.9 -72.9 L 106.9 -72.9 L 106.9 -72.9 Q 105.1 -73.9 104.6 -75.5 L 104.6 -75.5 L 104.6 -75.5 Q 103.6 -73.9 101.4 -72.9 L 101.4 -72.9 L 101.4 -72.9 Q 99.2 -71.9 96.3 -71.9 L 96.3 -71.9 L 96.3 -71.9 Q 93.4 -71.9 91 -72.6 L 91 -72.6 L 91 -72.6 Q 88.7 -73.4 87.2 -75.1 Z M 100.7 -101.1 L 100.7 -101.1 L 100.7 -101.1 Q 99.9 -99.9 99.3 -98 L 99.3 -98 L 99.3 -98 Q 98.7 -96 97.6 -90.8 L 97.6 -90.8 L 97.6 -90.8 Q 96.5 -85.6 96.5 -81.9 L 96.5 -81.9 L 96.5 -81.9 Q 96.5 -78.1 97.1 -77.1 L 97.1 -77.1 L 97.1 -77.1 Q 97.7 -76 98.7 -76 L 98.7 -76 L 98.7 -76 Q 100.8 -76 102.3 -77.9 L 102.3 -77.9 L 102.3 -77.9 Q 103.8 -79.9 104.3 -83.3 L 104.3 -83.3 L 107.7 -102.1 L 107.7 -102.1 Q 106.4 -103.2 104.8 -103.2 L 104.8 -103.2 L 104.8 -103.2 Q 103.3 -103.2 102.3 -102.7 L 102.3 -102.7 L 102.3 -102.7 Q 101.4 -102.2 100.7 -101.1 Z M 128.9 -99.9 L 128.9 -99.9 L 128.9 -99.9 Q 131 -103 134.3 -105 L 134.3 -105 L 134.3 -105 Q 137.6 -107.1 141.7 -107.1 L 141.7 -107.1 L 141.7 -107.1 Q 145.7 -107.1 147.6 -105.8 L 147.6 -105.8 L 160.2 -107.1 L 155.8 -82.5 L 155.8 -82.5 Q 153.6 -70 148.8 -65 L 148.8 -65 L 148.8 -65 Q 144.3 -60.4 135.5 -60.4 L 135.5 -60.4 L 135.5 -60.4 Q 128.7 -60.4 124.9 -62.5 L 124.9 -62.5 L 124.9 -62.5 Q 121.1 -64.6 121.1 -68.1 L 121.1 -68.1 L 121.1 -68.1 Q 121.1 -70.7 123 -72.2 L 123 -72.2 L 123 -72.2 Q 125 -73.7 128.1 -73.7 L 128.1 -73.7 L 128.1 -73.7 Q 130.8 -73.7 132.8 -72.5 L 132.8 -72.5 L 132.8 -72.5 Q 134 -71.9 134.6 -71 L 134.6 -71 L 134.6 -71 Q 133.1 -69.7 133.1 -67.6 L 133.1 -67.6 L 133.1 -67.6 Q 133.1 -64.8 135.7 -64.8 L 135.7 -64.8 L 135.7 -64.8 Q 140 -64.8 142.4 -74.9 L 142.4 -74.9 L 142.4 -74.9 Q 143.1 -77.7 143.7 -80.5 L 143.7 -80.5 L 143.7 -80.5 Q 140.8 -76.9 134.3 -76.9 L 134.3 -76.9 L 134.3 -76.9 Q 129.8 -76.9 127.1 -79.1 L 127.1 -79.1 L 127.1 -79.1 Q 124.5 -81.3 124.5 -86.4 L 124.5 -86.4 L 124.5 -86.4 Q 124.5 -89.6 125.6 -93.2 L 125.6 -93.2 L 125.6 -93.2 Q 126.7 -96.8 128.9 -99.9 Z M 137.2 -86.2 L 137.2 -86.2 L 137.2 -86.2 Q 137.2 -81.9 139.4 -81.9 L 139.4 -81.9 L 139.4 -81.9 Q 141 -81.9 142.4 -83.5 L 142.4 -83.5 L 142.4 -83.5 Q 143.6 -84.9 144 -86.9 L 144 -86.9 L 147.3 -103.3 L 147.3 -103.3 Q 147 -103.4 146.7 -103.5 L 146.7 -103.5 L 146.7 -103.5 Q 146 -103.7 145.2 -103.7 L 145.2 -103.7 L 145.2 -103.7 Q 141.3 -103.7 139 -97.3 L 139 -97.3 L 139 -97.3 Q 137.2 -92.4 137.2 -86.2 Z M 188.6 -84 L 188.6 -84 L 188.6 -84 Q 190.2 -82.9 190.2 -80.5 L 190.2 -80.5 L 190.2 -80.5 Q 190.2 -78.1 189 -76.5 L 189 -76.5 L 189 -76.5 Q 187.7 -75 185.8 -74 L 185.8 -74 L 185.8 -74 Q 181.7 -71.9 177.2 -71.9 L 177.2 -71.9 L 177.2 -71.9 Q 172.8 -71.9 170.2 -72.8 L 170.2 -72.8 L 170.2 -72.8 Q 167.6 -73.8 165.9 -75.6 L 165.9 -75.6 L 165.9 -75.6 Q 162.5 -79 162.5 -85.2 L 162.5 -85.2 L 162.5 -85.2 Q 162.5 -94.9 167.8 -100.7 L 167.8 -100.7 L 167.8 -100.7 Q 173.4 -107.1 183.2 -107.1 L 183.2 -107.1 L 183.2 -107.1 Q 189.3 -107.1 192.3 -104.5 L 192.3 -104.5 L 192.3 -104.5 Q 194.5 -102.6 194.5 -99.5 L 194.5 -99.5 L 194.5 -99.5 Q 194.5 -88.2 175.1 -88.2 L 175.1 -88.2 L 175.1 -88.2 Q 174.8 -86.5 174.8 -85.1 L 174.8 -85.1 L 174.8 -85.1 Q 174.8 -82.2 176.1 -81.1 L 176.1 -81.1 L 176.1 -81.1 Q 177.4 -79.9 179.9 -79.9 L 179.9 -79.9 L 179.9 -79.9 Q 182.3 -79.9 184.9 -81.1 L 184.9 -81.1 L 184.9 -81.1 Q 187.5 -82.2 188.6 -84 Z M 175.5 -90.9 L 175.5 -90.9 L 175.5 -90.9 Q 180.1 -90.9 182.7 -93.8 L 182.7 -93.8 L 182.7 -93.8 Q 185.3 -96.5 185.3 -100.7 L 185.3 -100.7 L 185.3 -100.7 Q 185.3 -102.2 184.8 -103 L 184.8 -103 L 184.8 -103 Q 184.2 -103.8 183.1 -103.8 L 183.1 -103.8 L 183.1 -103.8 Q 182 -103.8 181.1 -103.4 L 181.1 -103.4 L 181.1 -103.4 Q 180.2 -103 179.2 -101.6 L 179.2 -101.6 L 179.2 -101.6 Q 176.9 -98.4 175.5 -90.9 Z M 215.8 -95.6 L 215.8 -95.6 L 215.8 -95.6 Q 216.7 -98 216.7 -100 L 216.7 -100 L 216.7 -100 Q 216.7 -103.8 213.7 -103.8 L 213.7 -103.8 L 213.7 -103.8 Q 212.1 -103.8 210.7 -102.4 L 210.7 -102.4 L 210.7 -102.4 Q 209.4 -100.9 209.4 -99.1 L 209.4 -99.1 L 209.4 -99.1 Q 209.4 -97.9 210.5 -96.8 L 210.5 -96.8 L 210.5 -96.8 Q 211.9 -95.4 215.7 -93.1 L 215.7 -93.1 L 215.7 -93.1 Q 219.5 -90.8 220.9 -88.9 L 220.9 -88.9 L 220.9 -88.9 Q 222.4 -87 222.4 -84.5 L 222.4 -84.5 L 222.4 -84.5 Q 222.4 -81.9 221.1 -79.5 L 221.1 -79.5 L 221.1 -79.5 Q 219.9 -77.1 217.6 -75.5 L 217.6 -75.5 L 217.6 -75.5 Q 212.8 -71.9 205.1 -71.9 L 205.1 -71.9 L 205.1 -71.9 Q 201 -71.9 197.8 -74.1 L 197.8 -74.1 L 197.8 -74.1 Q 194.6 -76.2 194.6 -78.7 L 194.6 -78.7 L 194.6 -78.7 Q 194.6 -81.2 196.4 -82.6 L 196.4 -82.6 L 196.4 -82.6 Q 198.2 -84.1 200.9 -84.1 L 200.9 -84.1 L 200.9 -84.1 Q 203.6 -84.1 205.3 -83.1 L 205.3 -83.1 L 205.3 -83.1 Q 204.4 -81 204.4 -79.6 L 204.4 -79.6 L 204.4 -79.6 Q 204.4 -75.3 208 -75.3 L 208 -75.3 L 208 -75.3 Q 209.6 -75.3 210.6 -76.3 L 210.6 -76.3 L 210.6 -76.3 Q 211.6 -77.3 211.6 -78.9 L 211.6 -78.9 L 211.6 -78.9 Q 211.6 -82.2 206.1 -85.6 L 206.1 -85.6 L 206.1 -85.6 Q 201.6 -88.6 200.6 -89.7 L 200.6 -89.7 L 200.6 -89.7 Q 198.9 -91.8 198.9 -94.3 L 198.9 -94.3 L 198.9 -94.3 Q 198.9 -96.9 200.1 -99.3 L 200.1 -99.3 L 200.1 -99.3 Q 201.3 -101.8 203.5 -103.5 L 203.5 -103.5 L 203.5 -103.5 Q 208.2 -107.1 216.3 -107.1 L 216.3 -107.1 L 216.3 -107.1 Q 220.5 -107.1 223 -105.4 L 223 -105.4 L 223 -105.4 Q 225.4 -103.7 225.4 -100.9 L 225.4 -100.9 L 225.4 -100.9 Q 225.4 -98.1 223.7 -96.5 L 223.7 -96.5 L 223.7 -96.5 Q 222 -94.9 219 -94.9 L 219 -94.9 L 219 -94.9 Q 216.9 -94.9 215.8 -95.6 Z M 266.9 -93.8 L 279.8 -94.9 L 279.8 -94.9 Q 275.2 -84.8 275.2 -73.1 L 275.2 -73.1 L 275.2 -73.1 Q 273.5 -71.9 271 -71.9 L 271 -71.9 L 271 -71.9 Q 268.4 -71.9 266.8 -73.1 L 266.8 -73.1 L 266.8 -73.1 Q 265.2 -74.2 264.9 -75.5 L 264.9 -75.5 L 264.9 -75.5 Q 263.3 -73.8 260.7 -72.8 L 260.7 -72.8 L 260.7 -72.8 Q 258.1 -71.9 255.4 -71.9 L 255.4 -71.9 L 255.4 -71.9 Q 252.6 -71.9 250.2 -72.8 L 250.2 -72.8 L 250.2 -72.8 Q 247.8 -73.7 246 -75.7 L 246 -75.7 L 246 -75.7 Q 241.9 -80 241.9 -88.3 L 241.9 -88.3 L 241.9 -88.3 Q 241.9 -101.1 248.7 -108.7 L 248.7 -108.7 L 248.7 -108.7 Q 255.8 -116.7 268.3 -116.7 L 268.3 -116.7 L 268.3 -116.7 Q 276.9 -116.7 280 -112.2 L 280 -112.2 L 280 -112.2 Q 280.9 -110.8 280.9 -109.1 L 280.9 -109.1 L 280.9 -109.1 Q 280.9 -107.4 280.2 -106 L 280.2 -106 L 280.2 -106 Q 279.5 -104.5 278.3 -103.4 L 278.3 -103.4 L 278.3 -103.4 Q 275.5 -100.8 272.2 -100.8 L 272.2 -100.8 L 272.2 -100.8 Q 270.8 -100.8 269.5 -101.3 L 269.5 -101.3 L 269.5 -101.3 Q 269.8 -103.2 269.8 -105.4 L 269.8 -105.4 L 269.8 -105.4 Q 269.8 -107.7 269.6 -108.7 L 269.6 -108.7 L 269.6 -108.7 Q 269.5 -109.7 269.1 -110.5 L 269.1 -110.5 L 269.1 -110.5 Q 268.3 -112.3 266.4 -112.3 L 266.4 -112.3 L 266.4 -112.3 Q 264.6 -112.3 262.6 -110.3 L 262.6 -110.3 L 262.6 -110.3 Q 260.6 -108.4 259 -105.2 L 259 -105.2 L 259 -105.2 Q 255.5 -98 255.5 -89.3 L 255.5 -89.3 L 255.5 -89.3 Q 255.5 -85.4 257 -82.6 L 257 -82.6 L 257 -82.6 Q 258.7 -79.5 261.6 -79.5 L 261.6 -79.5 L 261.6 -79.5 Q 262.6 -79.5 263.5 -80 L 263.5 -80 L 263.5 -80 Q 264.5 -80.5 264.9 -80.9 L 264.9 -80.9 L 266.9 -93.8 Z M 285.8 -75.1 L 285.8 -75.1 L 285.8 -75.1 Q 284.3 -76.7 283.6 -79.4 L 283.6 -79.4 L 283.6 -79.4 Q 282.9 -82 282.9 -86.3 L 282.9 -86.3 L 282.9 -86.3 Q 282.9 -90.6 284.4 -94.5 L 284.4 -94.5 L 284.4 -94.5 Q 285.9 -98.4 288.5 -101.2 L 288.5 -101.2 L 288.5 -101.2 Q 294 -107.1 303.1 -107.1 L 303.1 -107.1 L 303.1 -107.1 Q 306.4 -107.1 308.8 -106 L 308.8 -106 L 319.7 -107.1 L 315 -82.1 L 315 -82.1 Q 314.8 -81.3 314.8 -79.9 L 314.8 -79.9 L 314.8 -79.9 Q 314.8 -78.5 315.6 -77.6 L 315.6 -77.6 L 315.6 -77.6 Q 316.5 -76.7 317.8 -76.6 L 317.8 -76.6 L 317.8 -76.6 Q 317.1 -74.4 314.8 -73.2 L 314.8 -73.2 L 314.8 -73.2 Q 312.5 -71.9 309.9 -71.9 L 309.9 -71.9 L 309.9 -71.9 Q 307.2 -71.9 305.5 -72.9 L 305.5 -72.9 L 305.5 -72.9 Q 303.7 -73.9 303.2 -75.5 L 303.2 -75.5 L 303.2 -75.5 Q 302.2 -73.9 300 -72.9 L 300 -72.9 L 300 -72.9 Q 297.8 -71.9 294.9 -71.9 L 294.9 -71.9 L 294.9 -71.9 Q 292 -71.9 289.6 -72.6 L 289.6 -72.6 L 289.6 -72.6 Q 287.3 -73.4 285.8 -75.1 Z M 299.3 -101.1 L 299.3 -101.1 L 299.3 -101.1 Q 298.5 -99.9 297.9 -98 L 297.9 -98 L 297.9 -98 Q 297.2 -96 296.2 -90.8 L 296.2 -90.8 L 296.2 -90.8 Q 295.1 -85.6 295.1 -81.9 L 295.1 -81.9 L 295.1 -81.9 Q 295.1 -78.1 295.7 -77.1 L 295.7 -77.1 L 295.7 -77.1 Q 296.3 -76 297.3 -76 L 297.3 -76 L 297.3 -76 Q 299.4 -76 300.9 -77.9 L 300.9 -77.9 L 300.9 -77.9 Q 302.4 -79.9 302.9 -83.3 L 302.9 -83.3 L 306.3 -102.1 L 306.3 -102.1 Q 305 -103.2 303.4 -103.2 L 303.4 -103.2 L 303.4 -103.2 Q 301.9 -103.2 300.9 -102.7 L 300.9 -102.7 L 300.9 -102.7 Q 300 -102.2 299.3 -101.1 Z M 338.5 -76.7 L 338.5 -76.7 L 338.5 -76.7 Q 336.5 -71.9 330.1 -71.9 L 330.1 -71.9 L 330.1 -71.9 Q 326.9 -71.9 324.9 -74.1 L 324.9 -74.1 L 324.9 -74.1 Q 323.2 -76 323.2 -78.1 L 323.2 -78.1 L 323.2 -78.1 Q 323.2 -82.9 325.5 -93.4 L 325.5 -93.4 L 330.1 -118 L 343.1 -119.2 L 336.9 -86.9 L 336.9 -86.9 Q 335.8 -82.1 335.8 -80.5 L 335.8 -80.5 L 335.8 -80.5 Q 335.8 -76.8 338.5 -76.7 Z M 359.2 -76.7 L 359.2 -76.7 L 359.2 -76.7 Q 357.2 -71.9 350.9 -71.9 L 350.9 -71.9 L 350.9 -71.9 Q 347.7 -71.9 345.6 -74.1 L 345.6 -74.1 L 345.6 -74.1 Q 344 -76 344 -78.1 L 344 -78.1 L 344 -78.1 Q 344 -82.9 346.2 -93.4 L 346.2 -93.4 L 350.9 -118 L 363.9 -119.2 L 357.7 -86.9 L 357.7 -86.9 Q 356.6 -82.1 356.6 -80.5 L 356.6 -80.5 L 356.6 -80.5 Q 356.6 -76.8 359.2 -76.7 Z M 390.6 -84 L 390.6 -84 L 390.6 -84 Q 392.2 -82.9 392.2 -80.5 L 392.2 -80.5 L 392.2 -80.5 Q 392.2 -78.1 390.9 -76.5 L 390.9 -76.5 L 390.9 -76.5 Q 389.7 -75 387.7 -74 L 387.7 -74 L 387.7 -74 Q 383.6 -71.9 379.2 -71.9 L 379.2 -71.9 L 379.2 -71.9 Q 374.8 -71.9 372.2 -72.8 L 372.2 -72.8 L 372.2 -72.8 Q 369.6 -73.8 367.9 -75.6 L 367.9 -75.6 L 367.9 -75.6 Q 364.5 -79 364.5 -85.2 L 364.5 -85.2 L 364.5 -85.2 Q 364.5 -94.9 369.8 -100.7 L 369.8 -100.7 L 369.8 -100.7 Q 375.4 -107.1 385.2 -107.1 L 385.2 -107.1 L 385.2 -107.1 Q 391.3 -107.1 394.3 -104.5 L 394.3 -104.5 L 394.3 -104.5 Q 396.5 -102.6 396.5 -99.5 L 396.5 -99.5 L 396.5 -99.5 Q 396.5 -88.2 377.1 -88.2 L 377.1 -88.2 L 377.1 -88.2 Q 376.8 -86.5 376.8 -85.1 L 376.8 -85.1 L 376.8 -85.1 Q 376.8 -82.2 378.1 -81.1 L 378.1 -81.1 L 378.1 -81.1 Q 379.4 -79.9 381.9 -79.9 L 381.9 -79.9 L 381.9 -79.9 Q 384.3 -79.9 386.9 -81.1 L 386.9 -81.1 L 386.9 -81.1 Q 389.5 -82.2 390.6 -84 Z M 377.5 -90.9 L 377.5 -90.9 L 377.5 -90.9 Q 382 -90.9 384.7 -93.8 L 384.7 -93.8 L 384.7 -93.8 Q 387.3 -96.5 387.3 -100.7 L 387.3 -100.7 L 387.3 -100.7 Q 387.3 -102.2 386.7 -103 L 386.7 -103 L 386.7 -103 Q 386.2 -103.8 385.1 -103.8 L 385.1 -103.8 L 385.1 -103.8 Q 384 -103.8 383.1 -103.4 L 383.1 -103.4 L 383.1 -103.4 Q 382.2 -103 381.2 -101.6 L 381.2 -101.6 L 381.2 -101.6 Q 378.8 -98.4 377.5 -90.9 Z M 418.7 -91.1 L 418.7 -91.1 L 418.7 -91.1 Q 421 -95.2 421 -99.4 L 421 -99.4 L 421 -99.4 Q 421 -102.1 419 -102.1 L 419 -102.1 L 419 -102.1 Q 417.5 -102.1 415.9 -99.5 L 415.9 -99.5 L 415.9 -99.5 Q 414.2 -96.9 413.7 -93.5 L 413.7 -93.5 L 410.4 -73.2 L 397.1 -71.9 L 403.7 -105.8 L 414.2 -107.1 L 413.1 -100.6 L 413.1 -100.6 Q 416.2 -107.1 423.3 -107.1 L 423.3 -107.1 L 423.3 -107.1 Q 427 -107.1 429 -105.2 L 429 -105.2 L 429 -105.2 Q 431 -103.2 431 -99.3 L 431 -99.3 L 431 -99.3 Q 431 -95.4 428.4 -92.9 L 428.4 -92.9 L 428.4 -92.9 Q 425.8 -90.4 421.4 -90.4 L 421.4 -90.4 L 421.4 -90.4 Q 419.5 -90.4 418.7 -91.1 Z M 452.4 -80.4 L 452.4 -80.4 L 452.4 -80.4 Q 449.1 -76.9 443 -76.9 L 443 -76.9 L 443 -76.9 Q 435.4 -76.9 433.8 -82.5 L 433.8 -82.5 L 433.8 -82.5 Q 433.2 -84.2 433.2 -86 L 433.2 -86 L 433.2 -86 Q 433.2 -87.9 433.6 -89.8 L 433.6 -89.8 L 436.6 -105.8 L 449.6 -107.1 L 446.1 -88.5 L 446.1 -88.5 Q 446 -87.6 445.8 -86.7 L 445.8 -86.7 L 445.8 -86.7 Q 445.6 -85.8 445.6 -84.9 L 445.6 -84.9 L 445.6 -84.9 Q 445.6 -84 445.9 -83.4 L 445.9 -83.4 L 445.9 -83.4 Q 446.2 -82.8 446.7 -82.4 L 446.7 -82.4 L 446.7 -82.4 Q 447.5 -81.9 448.8 -81.9 L 448.8 -81.9 L 448.8 -81.9 Q 450.2 -81.9 451.4 -83.5 L 451.4 -83.5 L 451.4 -83.5 Q 452.6 -85.2 453.1 -88.1 L 453.1 -88.1 L 456.7 -105.8 L 469.3 -107.1 L 464.5 -81.9 L 464.5 -81.9 Q 462.1 -69.6 457.2 -64.8 L 457.2 -64.8 L 457.2 -64.8 Q 454.7 -62.3 451.5 -61.3 L 451.5 -61.3 L 451.5 -61.3 Q 448.3 -60.3 444.1 -60.3 L 444.1 -60.3 L 444.1 -60.3 Q 437.4 -60.3 433.6 -62.4 L 433.6 -62.4 L 433.6 -62.4 Q 429.7 -64.5 429.7 -68 L 429.7 -68 L 429.7 -68 Q 429.7 -70.7 431.7 -72.2 L 431.7 -72.2 L 431.7 -72.2 Q 433.7 -73.7 436.8 -73.7 L 436.8 -73.7 L 436.8 -73.7 Q 439.5 -73.7 441.5 -72.5 L 441.5 -72.5 L 441.5 -72.5 Q 442.7 -71.8 443.3 -70.9 L 443.3 -70.9 L 443.3 -70.9 Q 441.8 -69.6 441.8 -67.5 L 441.8 -67.5 L 441.8 -67.5 Q 441.8 -64.7 444.4 -64.7 L 444.4 -64.7 L 444.4 -64.7 Q 448.6 -64.7 451 -74.4 L 451 -74.4 L 451 -74.4 Q 451.7 -77.3 452.4 -80.4 Z" fill="url(#editing-gradient-gradient)"></path></g></g><style>text {
  font-size: 64px;
  font-family: Arial Black;
  dominant-baseline: central;
  text-anchor: middle;
}</style></svg>